<svg width="512" height="512" viewBox="0 0 512 512" fill="none" xmlns="http://www.w3.org/2000/svg">
<path d="M268.265 305.387L270.863 247.428C271.065 242.91 274.595 239.248 279.103 238.879L290.164 237.974C289.912 256.205 308.426 273.608 290.164 273.608C271.902 273.608 300.383 298.345 290.164 305.387C283.122 310.24 268.265 305.387 268.265 305.387ZM237.617 349.35C230.802 357.748 226.415 325.096 224.896 311.285C224.528 307.939 221.718 305.387 218.351 305.387C212.531 305.387 209.303 297.789 211.36 292.344C215.927 280.251 212.128 266.14 204.562 245.374C203.278 241.851 199.916 239.524 196.167 239.524H195.022C188.309 239.524 184.153 232.439 185.891 225.955C188.211 217.3 187.197 209.825 182.499 199.962C181.24 197.32 178.514 195.725 175.587 195.725C168.809 195.725 163.738 186.01 161.656 179.559C161.041 177.653 160.018 175.669 158.439 173.661C154.31 168.412 180.533 163.288 186.449 162.208C187.236 162.064 188 162.037 188.794 162.13C194.998 162.86 223.813 166.781 229.091 177.209C231.647 182.258 234.765 185.866 238.1 188.415C241.399 190.937 241.004 195.274 236.875 195.725H234.249C227.523 195.725 222.612 203.217 222.994 209.932C223.703 222.401 220.653 233.968 234.017 239.524C252.417 247.174 234.817 263.174 243.617 274.774C250.949 284.439 247.857 299.25 246.621 303.922C246.362 304.904 246.193 305.926 246.279 306.937C247.185 317.612 255.11 301.04 268.265 305.387V340.369C268.265 345.329 264.244 349.35 259.284 349.35C256.938 349.35 254.488 349.35 252.417 349.35C246.201 349.35 246.201 338.774 237.617 349.35ZM290.164 237.974L285.251 232.139C283.463 230.017 282.757 227.186 283.339 224.473L284.467 219.209C284.698 218.128 285.127 217.1 285.732 216.175L289.808 209.941C290.976 208.155 291.47 206.012 291.201 203.895L290.272 196.574C290.2 196.01 290.077 195.461 289.916 194.915C288.5 190.106 282.071 165.533 298.547 165.533C316.809 165.533 329.682 179.395 347.046 173.661C364.409 167.928 347.046 202.057 334.128 195.725C329.292 193.355 324.984 192.759 321.488 192.942C316.18 193.219 315.52 199.193 316.85 204.339C318.998 212.654 313.735 219.6 310.583 226.758C308.035 232.546 302.218 238.965 295.915 238.447L290.164 237.974Z" fill="#FCFCFC"/>
</svg>
